<?xml version="1.0" encoding="UTF-8"?>
<svg id="Layer_2" xmlns="http://www.w3.org/2000/svg" version="1.1" viewBox="0 0 45.6 58.6">
  <!-- Generator: Adobe Illustrator 29.5.1, SVG Export Plug-In . SVG Version: 2.1.0 Build 141)  -->
  <defs>
    <style>
      .st0 {
        fill: #fff;
      }
    </style>
  </defs>
  <g id="Layer_1-2">
    <g>
      <circle class="st0" cx="40.9" cy="10.9" r="4.7"/>
      <path class="st0" d="M24.4,48.6h-2c0-.6.1-1.2.1-1.7,0-6.5-5.3-11.8-11.8-11.8H.1v10h10.7c1,0,1.8.8,1.8,1.8s-.8,1.8-1.8,1.8H.1v10h10.7c3.4,0,6.4-1.4,8.6-3.7v3.7h15V24.7h-10v23.9h0Z"/>
      <path class="st0" d="M24.4,12.7h-1.8c0-.4,0-.9,0-1.3C22.8,5.1,17.7,0,11.4,0S0,5.1,0,11.4s3,8.9,7.1,10.6L.2,33.2h11.7l6.4-10.5h16.1V0h-10v12.7h0ZM9.7,9.7c.9-.9,2.5-.9,3.4,0s.9,2.5,0,3.4-2.5.9-3.4,0-.9-2.5,0-3.4Z"/>
    </g>
  </g>
</svg>