<?xml version="1.0" encoding="UTF-8"?>
<svg id="Layer_2" data-name="Layer 2" xmlns="http://www.w3.org/2000/svg" viewBox="0 0 45.57 58.59">
  <g id="Layer_1-2" data-name="Layer 1">
    <g>
      <circle cx="40.9" cy="10.94" r="4.68" transform="translate(-1.22 6.69) rotate(-9.22)"/>
      <path d="M24.43,48.56h-1.96c.08-.57.14-1.15.14-1.74,0-6.49-5.28-11.77-11.77-11.77H.13v10.02h10.71c.96,0,1.75.78,1.75,1.75s-.78,1.75-1.75,1.75H.13v10.02h10.71c3.38,0,6.42-1.44,8.57-3.73v3.73h10.03s5,0,5,0V24.66h-10.02v23.9Z"/>
      <path d="M24.43,12.72h-1.76c.05-.44.09-.89.09-1.34C22.76,5.09,17.66,0,11.38,0S0,5.09,0,11.38c0,4.78,2.95,8.86,7.12,10.55L.25,33.25h11.72l6.38-10.51h16.11V.06h-10.02v12.66ZM9.68,9.68c.94-.94,2.46-.94,3.4,0s.94,2.46,0,3.4c-.94.94-2.46.94-3.4,0-.94-.94-.94-2.46,0-3.4Z"/>
    </g>
  </g>
</svg>